# xmcd CD database file
#
# Track frame offsets:
#	182
#	12065
#	25095
#	35750
#	49485
#	61125
#	78440
#	93187
#	103422
#	113687
#	127830
#	152312
#	167495
#	178537
#	189985
#	201512
#
# Disc length: 2836 seconds
#
# Revision: 0
# Processed by: cddbd v1.5.2PL0 Copyright (c) Steve Scherf et al.
# Submitted via: CDex 1.51
#
DISCID=c30b1210
DTITLE=cotton club  - cotton club cd 1
DYEAR=1995
DGENRE=Jazz
TTITLE0=moonlight serenade
TTITLE1=ces't si bon
TTITLE2=when the sints go matchin in
TTITLE3=sophisticated lady
TTITLE4=if I had you
TTITLE5=st. luis blues
TTITLE6=pennsylvania
TTITLE7=tico tico
TTITLE8=on the sunny side of the street
TTITLE9=smoke gets in your eyes
TTITLE10=take five
TTITLE11=blue moon
TTITLE12=hello dolly
TTITLE13=joshua fit the battle of jericho
TTITLE14=night and day
TTITLE15=keep your hand on plow
EXTD=YEAR: 1995
EXTT0=
EXTT1=
EXTT2=
EXTT3=
EXTT4=
EXTT5=
EXTT6=
EXTT7=
EXTT8=
EXTT9=
EXTT10=
EXTT11=
EXTT12=
EXTT13=
EXTT14=
EXTT15=
PLAYORDER=
